<svg version="1.1" xmlns="http://www.w3.org/2000/svg" xmlns:xlink="http://www.w3.org/1999/xlink" width="1045" height="758"><defs/><g><rect fill="#ffffff" stroke="none" x="72" y="96" width="200" height="184" transform="matrix(1 0 0 1 -62 -14)"/></g><g><path fill="none" stroke="#000000" paint-order="fill stroke markers" d=" M 10 82 L 210 82 L 210 266 L 10 266 L 10 82 Z Z" stroke-miterlimit="10" stroke-dasharray=""/></g><g><path fill="none" stroke="#000000" paint-order="fill stroke markers" d=" M 10 107 L 210 107" stroke-miterlimit="10" stroke-dasharray=""/></g><g><path fill="none" stroke="#000000" paint-order="fill stroke markers" d=" M 10 175 L 210 175" stroke-miterlimit="10" stroke-dasharray=""/></g><g><g><path fill="none" stroke="none"/><text fill="#000000" stroke="none" font-family="Arial" font-size="13px" font-style="normal" font-weight="bold" text-decoration="undefined" x="172.5" y="109.5" text-anchor="middle" dominant-baseline="central" transform="matrix(1 0 0 1 -62 -14)">Utilisateur</text></g></g><g><g><path fill="none" stroke="none"/><text fill="#000000" stroke="none" font-family="Arial" font-size="13px" font-style="normal" font-weight="normal" text-decoration="undefined" x="77" y="132.5" text-anchor="start" dominant-baseline="central" transform="matrix(1 0 0 1 -62 -14)">+id_utilisateur: INT PK</text></g></g><g><g><path fill="none" stroke="none"/><text fill="#000000" stroke="none" font-family="Arial" font-size="13px" font-style="normal" font-weight="normal" text-decoration="undefined" x="77" y="147.5" text-anchor="start" dominant-baseline="central" transform="matrix(1 0 0 1 -62 -14)">+nom_utilisateur: VARCHAR</text></g></g><g><g><path fill="none" stroke="none"/><text fill="#000000" stroke="none" font-family="Arial" font-size="13px" font-style="normal" font-weight="normal" text-decoration="undefined" x="77" y="162.5" text-anchor="start" dominant-baseline="central" transform="matrix(1 0 0 1 -62 -14)">+mot_de_passe: VARCHAR</text></g></g><g><g><path fill="none" stroke="none"/><text fill="#000000" stroke="none" font-family="Arial" font-size="13px" font-style="normal" font-weight="normal" text-decoration="undefined" x="77" y="177.5" text-anchor="start" dominant-baseline="central" transform="matrix(1 0 0 1 -62 -14)">+email: VARCHAR UNIQUE</text></g></g><g><g><path fill="none" stroke="none"/><text fill="#000000" stroke="none" font-family="Arial" font-size="13px" font-style="normal" font-weight="normal" text-decoration="undefined" x="77" y="200.5" text-anchor="start" dominant-baseline="central" transform="matrix(1 0 0 1 -62 -14)">+CreateAccount(): void</text></g></g><g><g><path fill="none" stroke="none"/><text fill="#000000" stroke="none" font-family="Arial" font-size="13px" font-style="normal" font-weight="normal" text-decoration="undefined" x="77" y="215.5" text-anchor="start" dominant-baseline="central" transform="matrix(1 0 0 1 -62 -14)">+editinfo(): void</text></g></g><g><g><path fill="none" stroke="none"/><text fill="#000000" stroke="none" font-family="Arial" font-size="13px" font-style="normal" font-weight="normal" text-decoration="undefined" x="77" y="230.5" text-anchor="start" dominant-baseline="central" transform="matrix(1 0 0 1 -62 -14)">+deleteAccount(): void</text></g></g><g><g><path fill="none" stroke="none"/><text fill="#000000" stroke="none" font-family="Arial" font-size="13px" font-style="normal" font-weight="normal" text-decoration="undefined" x="77" y="245.5" text-anchor="start" dominant-baseline="central" transform="matrix(1 0 0 1 -62 -14)">+pushProject(): void</text></g></g><g><g><path fill="none" stroke="none"/><text fill="#000000" stroke="none" font-family="Arial" font-size="13px" font-style="normal" font-weight="normal" text-decoration="undefined" x="77" y="260.5" text-anchor="start" dominant-baseline="central" transform="matrix(1 0 0 1 -62 -14)">+ViewOff(): void</text></g></g><g><rect fill="#C0C0C0" stroke="none" x="79" y="327" width="232" height="160" transform="matrix(1 0 0 1 -62 -14)" fill-opacity="0.2"/></g><g><rect fill="#ffffff" stroke="none" x="72" y="320" width="232" height="160" transform="matrix(1 0 0 1 -62 -14)"/></g><g><path fill="none" stroke="#000000" paint-order="fill stroke markers" d=" M 10 306 L 242 306 L 242 466 L 10 466 L 10 306 Z Z" stroke-miterlimit="10" stroke-dasharray=""/></g><g><path fill="none" stroke="#000000" paint-order="fill stroke markers" d=" M 10 331 L 242 331" stroke-miterlimit="10" stroke-dasharray=""/></g><g><path fill="none" stroke="#000000" paint-order="fill stroke markers" d=" M 10 384 L 242 384" stroke-miterlimit="10" stroke-dasharray=""/></g><g><g><path fill="none" stroke="none"/><text fill="#000000" stroke="none" font-family="Arial" font-size="13px" font-style="normal" font-weight="bold" text-decoration="undefined" x="188.5" y="333.5" text-anchor="middle" dominant-baseline="central" transform="matrix(1 0 0 1 -62 -14)">Temoignage</text></g></g><g><g><path fill="none" stroke="none"/><text fill="#000000" stroke="none" font-family="Arial" font-size="13px" font-style="normal" font-weight="normal" text-decoration="undefined" x="77" y="356.5" text-anchor="start" dominant-baseline="central" transform="matrix(1 0 0 1 -62 -14)">+id_temoignage: INT PK</text></g></g><g><g><path fill="none" stroke="none"/><text fill="#000000" stroke="none" font-family="Arial" font-size="13px" font-style="normal" font-weight="normal" text-decoration="undefined" x="77" y="371.5" text-anchor="start" dominant-baseline="central" transform="matrix(1 0 0 1 -62 -14)">+commentaire: VARCHAR</text></g></g><g><g><path fill="none" stroke="none"/><text fill="#000000" stroke="none" font-family="Arial" font-size="13px" font-style="normal" font-weight="normal" text-decoration="undefined" x="77" y="386.5" text-anchor="start" dominant-baseline="central" transform="matrix(1 0 0 1 -62 -14)">+id_utilisateur: INT FK</text></g></g><g><g><path fill="none" stroke="none"/><text fill="#000000" stroke="none" font-family="Arial" font-size="13px" font-style="normal" font-weight="normal" text-decoration="undefined" x="77" y="409.5" text-anchor="start" dominant-baseline="central" transform="matrix(1 0 0 1 -62 -14)">+NewTemoignage(): void</text></g></g><g><g><path fill="none" stroke="none"/><text fill="#000000" stroke="none" font-family="Arial" font-size="13px" font-style="normal" font-weight="normal" text-decoration="undefined" x="77" y="424.5" text-anchor="start" dominant-baseline="central" transform="matrix(1 0 0 1 -62 -14)">+editTemoignage(): void</text></g></g><g><g><path fill="none" stroke="none"/><text fill="#000000" stroke="none" font-family="Arial" font-size="13px" font-style="normal" font-weight="normal" text-decoration="undefined" x="77" y="439.5" text-anchor="start" dominant-baseline="central" transform="matrix(1 0 0 1 -62 -14)">+deleteTemoignage(): void</text></g></g><g><rect fill="#C0C0C0" stroke="none" x="727" y="31" width="240" height="112" transform="matrix(1 0 0 1 -62 -14)" fill-opacity="0.2"/></g><g><rect fill="#ffffff" stroke="none" x="720" y="24" width="240" height="112" transform="matrix(1 0 0 1 -62 -14)"/></g><g><path fill="none" stroke="#000000" paint-order="fill stroke markers" d=" M 658 10 L 898 10 L 898 122 L 658 122 L 658 10 Z Z" stroke-miterlimit="10" stroke-dasharray=""/></g><g><path fill="none" stroke="#000000" paint-order="fill stroke markers" d=" M 658 35 L 898 35" stroke-miterlimit="10" stroke-dasharray=""/></g><g><path fill="none" stroke="#000000" paint-order="fill stroke markers" d=" M 658 73 L 898 73" stroke-miterlimit="10" stroke-dasharray=""/></g><g><g><path fill="none" stroke="none"/><text fill="#000000" stroke="none" font-family="Arial" font-size="13px" font-style="normal" font-weight="bold" text-decoration="undefined" x="840.5" y="37.5" text-anchor="middle" dominant-baseline="central" transform="matrix(1 0 0 1 -62 -14)">Categories</text></g></g><g><g><path fill="none" stroke="none"/><text fill="#000000" stroke="none" font-family="Arial" font-size="13px" font-style="normal" font-weight="normal" text-decoration="undefined" x="725" y="60.5" text-anchor="start" dominant-baseline="central" transform="matrix(1 0 0 1 -62 -14)">+id_categorie: INT PK</text></g></g><g><g><path fill="none" stroke="none"/><text fill="#000000" stroke="none" font-family="Arial" font-size="13px" font-style="normal" font-weight="normal" text-decoration="undefined" x="725" y="75.5" text-anchor="start" dominant-baseline="central" transform="matrix(1 0 0 1 -62 -14)">+nom_categorie: VARCHAR UNIQUE</text></g></g><g><g><path fill="none" stroke="none"/><text fill="#000000" stroke="none" font-family="Arial" font-size="13px" font-style="normal" font-weight="normal" text-decoration="undefined" x="725" y="98.5" text-anchor="start" dominant-baseline="central" transform="matrix(1 0 0 1 -62 -14)">+NewCategorie(): void</text></g></g><g><g><path fill="none" stroke="none"/><text fill="#000000" stroke="none" font-family="Arial" font-size="13px" font-style="normal" font-weight="normal" text-decoration="undefined" x="725" y="113.5" text-anchor="start" dominant-baseline="central" transform="matrix(1 0 0 1 -62 -14)">+DeleteCategorie(): void</text></g></g><g><rect fill="#C0C0C0" stroke="none" x="735" y="223" width="256" height="191" transform="matrix(1 0 0 1 -62 -14)" fill-opacity="0.2"/></g><g><rect fill="#ffffff" stroke="none" x="728" y="216" width="256" height="191" transform="matrix(1 0 0 1 -62 -14)"/></g><g><path fill="none" stroke="#000000" paint-order="fill stroke markers" d=" M 666 202 L 922 202 L 922 393 L 666 393 L 666 202 Z Z" stroke-miterlimit="10" stroke-dasharray=""/></g><g><path fill="none" stroke="#000000" paint-order="fill stroke markers" d=" M 666 227 L 922 227" stroke-miterlimit="10" stroke-dasharray=""/></g><g><path fill="none" stroke="#000000" paint-order="fill stroke markers" d=" M 666 325 L 922 325" stroke-miterlimit="10" stroke-dasharray=""/></g><g><g><path fill="none" stroke="none"/><text fill="#000000" stroke="none" font-family="Arial" font-size="13px" font-style="normal" font-weight="bold" text-decoration="undefined" x="856.5" y="229.5" text-anchor="middle" dominant-baseline="central" transform="matrix(1 0 0 1 -62 -14)">Projets</text></g></g><g><g><path fill="none" stroke="none"/><text fill="#000000" stroke="none" font-family="Arial" font-size="13px" font-style="normal" font-weight="normal" text-decoration="undefined" x="733" y="252.5" text-anchor="start" dominant-baseline="central" transform="matrix(1 0 0 1 -62 -14)">+id_projet: INT PK</text></g></g><g><g><path fill="none" stroke="none"/><text fill="#000000" stroke="none" font-family="Arial" font-size="13px" font-style="normal" font-weight="normal" text-decoration="undefined" x="733" y="267.5" text-anchor="start" dominant-baseline="central" transform="matrix(1 0 0 1 -62 -14)">+titre_projet: VARCHAR</text></g></g><g><g><path fill="none" stroke="none"/><text fill="#000000" stroke="none" font-family="Arial" font-size="13px" font-style="normal" font-weight="normal" text-decoration="undefined" x="733" y="282.5" text-anchor="start" dominant-baseline="central" transform="matrix(1 0 0 1 -62 -14)">+description: VARCHAR</text></g></g><g><g><path fill="none" stroke="none"/><text fill="#000000" stroke="none" font-family="Arial" font-size="13px" font-style="normal" font-weight="normal" text-decoration="undefined" x="733" y="297.5" text-anchor="start" dominant-baseline="central" transform="matrix(1 0 0 1 -62 -14)">+id_categorie: INT FK</text></g></g><g><g><path fill="none" stroke="none"/><text fill="#000000" stroke="none" font-family="Arial" font-size="13px" font-style="normal" font-weight="normal" text-decoration="undefined" x="733" y="312.5" text-anchor="start" dominant-baseline="central" transform="matrix(1 0 0 1 -62 -14)">+id_sous_categorie: INT FK</text></g></g><g><g><path fill="none" stroke="none"/><text fill="#000000" stroke="none" font-family="Arial" font-size="13px" font-style="normal" font-weight="normal" text-decoration="undefined" x="733" y="327.5" text-anchor="start" dominant-baseline="central" transform="matrix(1 0 0 1 -62 -14)">+id_utilisateur: INT FK</text></g></g><g><g><path fill="none" stroke="none"/><text fill="#000000" stroke="none" font-family="Arial" font-size="13px" font-style="normal" font-weight="normal" text-decoration="undefined" x="733" y="350.5" text-anchor="start" dominant-baseline="central" transform="matrix(1 0 0 1 -62 -14)">+NewProjet(): void</text></g></g><g><g><path fill="none" stroke="none"/><text fill="#000000" stroke="none" font-family="Arial" font-size="13px" font-style="normal" font-weight="normal" text-decoration="undefined" x="733" y="365.5" text-anchor="start" dominant-baseline="central" transform="matrix(1 0 0 1 -62 -14)">+proccessProject(): void</text></g></g><g><g><path fill="none" stroke="none"/><text fill="#000000" stroke="none" font-family="Arial" font-size="13px" font-style="normal" font-weight="normal" text-decoration="undefined" x="733" y="380.5" text-anchor="start" dominant-baseline="central" transform="matrix(1 0 0 1 -62 -14)">+DeleteProject(): void</text></g></g><g><g><path fill="none" stroke="none"/><text fill="#000000" stroke="none" font-family="Arial" font-size="13px" font-style="normal" font-weight="normal" text-decoration="undefined" x="733" y="395.5" text-anchor="start" dominant-baseline="central" transform="matrix(1 0 0 1 -62 -14)">+EditProject(): void</text></g></g><g><rect fill="#C0C0C0" stroke="none" x="367" y="31" width="262.27490234375" height="136" transform="matrix(1 0 0 1 -62 -14)" fill-opacity="0.2"/></g><g><rect fill="#ffffff" stroke="none" x="360" y="24" width="262.27490234375" height="136" transform="matrix(1 0 0 1 -62 -14)"/></g><g><path fill="none" stroke="#000000" paint-order="fill stroke markers" d=" M 298 10 L 560.27490234375 10 L 560.27490234375 146 L 298 146 L 298 10 Z Z" stroke-miterlimit="10" stroke-dasharray=""/></g><g><path fill="none" stroke="#000000" paint-order="fill stroke markers" d=" M 298 35 L 560.27490234375 35" stroke-miterlimit="10" stroke-dasharray=""/></g><g><path fill="none" stroke="#000000" paint-order="fill stroke markers" d=" M 298 88 L 560.27490234375 88" stroke-miterlimit="10" stroke-dasharray=""/></g><g><g><path fill="none" stroke="none"/><text fill="#000000" stroke="none" font-family="Arial" font-size="13px" font-style="normal" font-weight="bold" text-decoration="undefined" x="491.637451171875" y="37.5" text-anchor="middle" dominant-baseline="central" transform="matrix(1 0 0 1 -62 -14)">Sous_Categorie</text></g></g><g><g><path fill="none" stroke="none"/><text fill="#000000" stroke="none" font-family="Arial" font-size="13px" font-style="normal" font-weight="normal" text-decoration="undefined" x="365" y="60.5" text-anchor="start" dominant-baseline="central" transform="matrix(1 0 0 1 -62 -14)">+id_sous_categorie: INT PK</text></g></g><g><g><path fill="none" stroke="none"/><text fill="#000000" stroke="none" font-family="Arial" font-size="13px" font-style="normal" font-weight="normal" text-decoration="undefined" x="365" y="75.5" text-anchor="start" dominant-baseline="central" transform="matrix(1 0 0 1 -62 -14)">+nom_sous_categorie: VARCHAR UNIQUE</text></g></g><g><g><path fill="none" stroke="none"/><text fill="#000000" stroke="none" font-family="Arial" font-size="13px" font-style="normal" font-weight="normal" text-decoration="undefined" x="365" y="90.5" text-anchor="start" dominant-baseline="central" transform="matrix(1 0 0 1 -62 -14)">+id_categorie: INT FK</text></g></g><g><g><path fill="none" stroke="none"/><text fill="#000000" stroke="none" font-family="Arial" font-size="13px" font-style="normal" font-weight="normal" text-decoration="undefined" x="365" y="113.5" text-anchor="start" dominant-baseline="central" transform="matrix(1 0 0 1 -62 -14)">+AddNewSousCategorie(): void</text></g></g><g><g><path fill="none" stroke="none"/><text fill="#000000" stroke="none" font-family="Arial" font-size="13px" font-style="normal" font-weight="normal" text-decoration="undefined" x="365" y="128.5" text-anchor="start" dominant-baseline="central" transform="matrix(1 0 0 1 -62 -14)">+EditSousCatgorie(): void</text></g></g><g><g><path fill="none" stroke="none"/><text fill="#000000" stroke="none" font-family="Arial" font-size="13px" font-style="normal" font-weight="normal" text-decoration="undefined" x="365" y="143.5" text-anchor="start" dominant-baseline="central" transform="matrix(1 0 0 1 -62 -14)">+DeleteSousCategorie(): void</text></g></g><g><rect fill="#C0C0C0" stroke="none" x="383" y="527" width="288" height="176" transform="matrix(1 0 0 1 -62 -14)" fill-opacity="0.2"/></g><g><rect fill="#ffffff" stroke="none" x="376" y="520" width="288" height="176" transform="matrix(1 0 0 1 -62 -14)"/></g><g><path fill="none" stroke="#000000" paint-order="fill stroke markers" d=" M 314 506 L 602 506 L 602 682 L 314 682 L 314 506 Z Z" stroke-miterlimit="10" stroke-dasharray=""/></g><g><path fill="none" stroke="#000000" paint-order="fill stroke markers" d=" M 314 531 L 602 531" stroke-miterlimit="10" stroke-dasharray=""/></g><g><path fill="none" stroke="#000000" paint-order="fill stroke markers" d=" M 314 614 L 602 614" stroke-miterlimit="10" stroke-dasharray=""/></g><g><g><path fill="none" stroke="none"/><text fill="#000000" stroke="none" font-family="Arial" font-size="13px" font-style="normal" font-weight="bold" text-decoration="undefined" x="520.5" y="533.5" text-anchor="middle" dominant-baseline="central" transform="matrix(1 0 0 1 -62 -14)">Offer</text></g></g><g><g><path fill="none" stroke="none"/><text fill="#000000" stroke="none" font-family="Arial" font-size="13px" font-style="normal" font-weight="normal" text-decoration="undefined" x="381" y="556.5" text-anchor="start" dominant-baseline="central" transform="matrix(1 0 0 1 -62 -14)">+id_offer: INT PK</text></g></g><g><g><path fill="none" stroke="none"/><text fill="#000000" stroke="none" font-family="Arial" font-size="13px" font-style="normal" font-weight="normal" text-decoration="undefined" x="381" y="571.5" text-anchor="start" dominant-baseline="central" transform="matrix(1 0 0 1 -62 -14)">+montant: INT</text></g></g><g><g><path fill="none" stroke="none"/><text fill="#000000" stroke="none" font-family="Arial" font-size="13px" font-style="normal" font-weight="normal" text-decoration="undefined" x="381" y="586.5" text-anchor="start" dominant-baseline="central" transform="matrix(1 0 0 1 -62 -14)">+delai: DATE</text></g></g><g><g><path fill="none" stroke="none"/><text fill="#000000" stroke="none" font-family="Arial" font-size="13px" font-style="normal" font-weight="normal" text-decoration="undefined" x="381" y="601.5" text-anchor="start" dominant-baseline="central" transform="matrix(1 0 0 1 -62 -14)">+id_freelance: INT FK</text></g></g><g><g><path fill="none" stroke="none"/><text fill="#000000" stroke="none" font-family="Arial" font-size="13px" font-style="normal" font-weight="normal" text-decoration="undefined" x="381" y="616.5" text-anchor="start" dominant-baseline="central" transform="matrix(1 0 0 1 -62 -14)">+id_projet: INT FK</text></g></g><g><g><path fill="none" stroke="none"/><text fill="#000000" stroke="none" font-family="Arial" font-size="13px" font-style="normal" font-weight="normal" text-decoration="undefined" x="381" y="639.5" text-anchor="start" dominant-baseline="central" transform="matrix(1 0 0 1 -62 -14)">+NewOffer(): void</text></g></g><g><g><path fill="none" stroke="none"/><text fill="#000000" stroke="none" font-family="Arial" font-size="13px" font-style="normal" font-weight="normal" text-decoration="undefined" x="381" y="654.5" text-anchor="start" dominant-baseline="central" transform="matrix(1 0 0 1 -62 -14)">+EditOffer(): void</text></g></g><g><g><path fill="none" stroke="none"/><text fill="#000000" stroke="none" font-family="Arial" font-size="13px" font-style="normal" font-weight="normal" text-decoration="undefined" x="381" y="669.5" text-anchor="start" dominant-baseline="central" transform="matrix(1 0 0 1 -62 -14)">+DeleteOffer(): void</text></g></g><g><g><path fill="none" stroke="none"/><text fill="#000000" stroke="none" font-family="Arial" font-size="13px" font-style="normal" font-weight="normal" text-decoration="undefined" x="381" y="684.5" text-anchor="start" dominant-baseline="central" transform="matrix(1 0 0 1 -62 -14)">+ProccessOffer(): void</text></g></g><g><rect fill="#C0C0C0" stroke="none" x="751" y="623" width="352" height="146" transform="matrix(1 0 0 1 -62 -14)" fill-opacity="0.2"/></g><g><rect fill="#ffffff" stroke="none" x="744" y="616" width="352" height="146" transform="matrix(1 0 0 1 -62 -14)"/></g><g><path fill="none" stroke="#000000" paint-order="fill stroke markers" d=" M 682 602 L 1034 602 L 1034 748 L 682 748 L 682 602 Z Z" stroke-miterlimit="10" stroke-dasharray=""/></g><g><path fill="none" stroke="#000000" paint-order="fill stroke markers" d=" M 682 627 L 1034 627" stroke-miterlimit="10" stroke-dasharray=""/></g><g><path fill="none" stroke="#000000" paint-order="fill stroke markers" d=" M 682 695 L 1034 695" stroke-miterlimit="10" stroke-dasharray=""/></g><g><g><path fill="none" stroke="none"/><text fill="#000000" stroke="none" font-family="Arial" font-size="13px" font-style="normal" font-weight="bold" text-decoration="undefined" x="920.5" y="629.5" text-anchor="middle" dominant-baseline="central" transform="matrix(1 0 0 1 -62 -14)">Freelance</text></g></g><g><g><path fill="none" stroke="none"/><text fill="#000000" stroke="none" font-family="Arial" font-size="13px" font-style="normal" font-weight="normal" text-decoration="undefined" x="749" y="652.5" text-anchor="start" dominant-baseline="central" transform="matrix(1 0 0 1 -62 -14)">+id_freelance: INT PK</text></g></g><g><g><path fill="none" stroke="none"/><text fill="#000000" stroke="none" font-family="Arial" font-size="13px" font-style="normal" font-weight="normal" text-decoration="undefined" x="749" y="667.5" text-anchor="start" dominant-baseline="central" transform="matrix(1 0 0 1 -62 -14)">+nom_freelance: VARCHAR</text></g></g><g><g><path fill="none" stroke="none"/><text fill="#000000" stroke="none" font-family="Arial" font-size="13px" font-style="normal" font-weight="normal" text-decoration="undefined" x="749" y="682.5" text-anchor="start" dominant-baseline="central" transform="matrix(1 0 0 1 -62 -14)">+competences: VARCHAR</text></g></g><g><g><path fill="none" stroke="none"/><text fill="#000000" stroke="none" font-family="Arial" font-size="13px" font-style="normal" font-weight="normal" text-decoration="undefined" x="749" y="697.5" text-anchor="start" dominant-baseline="central" transform="matrix(1 0 0 1 -62 -14)">+id_utilisateur: INT FK</text></g></g><g><g><path fill="none" stroke="none"/><text fill="#000000" stroke="none" font-family="Arial" font-size="13px" font-style="normal" font-weight="normal" text-decoration="undefined" x="749" y="720.5" text-anchor="start" dominant-baseline="central" transform="matrix(1 0 0 1 -62 -14)">+NewFreelance(): void</text></g></g><g><g><path fill="none" stroke="none"/><text fill="#000000" stroke="none" font-family="Arial" font-size="13px" font-style="normal" font-weight="normal" text-decoration="undefined" x="749" y="735.5" text-anchor="start" dominant-baseline="central" transform="matrix(1 0 0 1 -62 -14)">+DeleteFreelance(): void</text></g></g><g><g><path fill="none" stroke="none"/><text fill="#000000" stroke="none" font-family="Arial" font-size="13px" font-style="normal" font-weight="normal" text-decoration="undefined" x="749" y="750.5" text-anchor="start" dominant-baseline="central" transform="matrix(1 0 0 1 -62 -14)">+EditFreelance(): void</text></g></g><g><path fill="none" stroke="#000000" paint-order="fill stroke markers" d=" M 561 73 L 657 70" stroke-miterlimit="10" stroke-dasharray=""/></g><g><path fill="none" stroke="#000000" paint-order="fill stroke markers" d=" M 646.9737669991969 74.52489246431415 L 657 70 L 646.7108005097193 66.10996480103222" stroke-miterlimit="10" stroke-dasharray=""/></g><g><path fill="none" stroke="#000000" paint-order="fill stroke markers" d=" M 782 123 L 787 201" stroke-miterlimit="10" stroke-dasharray=""/></g><g><path fill="none" stroke="#000000" paint-order="fill stroke markers" d=" M 544 147 L 665 220" stroke-miterlimit="10" stroke-dasharray=""/></g><g><path fill="none" stroke="#000000" paint-order="fill stroke markers" d=" M 211 192 L 665 274" stroke-miterlimit="10" stroke-dasharray=""/></g><g><path fill="none" stroke="#000000" paint-order="fill stroke markers" d=" M 684 394 L 559 505" stroke-miterlimit="10" stroke-dasharray=""/></g><g><path fill="none" stroke="#000000" paint-order="fill stroke markers" d=" M 211 242 L 748 601" stroke-miterlimit="10" stroke-dasharray=""/></g><g><path fill="none" stroke="#000000" paint-order="fill stroke markers" d=" M 681 639 L 603 623" stroke-miterlimit="10" stroke-dasharray=""/></g><g><path fill="none" stroke="#000000" paint-order="fill stroke markers" d=" M 120 305 L 117 267" stroke-miterlimit="10" stroke-dasharray=""/></g></svg>